<mxfile host="Electron" modified="2024-06-04T16:31:04.543Z" agent="Mozilla/5.0 (X11; Linux x86_64) AppleWebKit/537.36 (KHTML, like Gecko) draw.io/24.4.8 Chrome/124.0.6367.207 Electron/30.0.6 Safari/537.36" etag="sYe675ZYSxcO4qqDAlJG" version="24.3.1" type="device">
  <diagram name="Page-1" id="Hp8R7yjbj4EGSyhL0wEn">
    <mxGraphModel dx="1434" dy="847" grid="1" gridSize="10" guides="1" tooltips="1" connect="1" arrows="1" fold="1" page="1" pageScale="1" pageWidth="1169" pageHeight="827" math="0" shadow="0">
      <root>
        <mxCell id="0" />
        <mxCell id="1" parent="0" />
        <mxCell id="j4qfja45PSdk9B2tENhS-32" value="" style="rounded=0;whiteSpace=wrap;html=1;fillColor=none;" parent="1" vertex="1">
          <mxGeometry x="150" y="110" width="830" height="410" as="geometry" />
        </mxCell>
        <mxCell id="j4qfja45PSdk9B2tENhS-1" value="BRAM" style="rounded=0;whiteSpace=wrap;html=1;" parent="1" vertex="1">
          <mxGeometry x="820" y="220" width="80" height="160" as="geometry" />
        </mxCell>
        <mxCell id="j4qfja45PSdk9B2tENhS-11" style="edgeStyle=orthogonalEdgeStyle;rounded=0;orthogonalLoop=1;jettySize=auto;html=1;" parent="1" source="j4qfja45PSdk9B2tENhS-2" target="j4qfja45PSdk9B2tENhS-9" edge="1">
          <mxGeometry relative="1" as="geometry" />
        </mxCell>
        <mxCell id="j4qfja45PSdk9B2tENhS-36" style="edgeStyle=orthogonalEdgeStyle;rounded=0;orthogonalLoop=1;jettySize=auto;html=1;exitX=1;exitY=0;exitDx=0;exitDy=0;entryX=0.5;entryY=0;entryDx=0;entryDy=0;" parent="1" source="j4qfja45PSdk9B2tENhS-2" target="j4qfja45PSdk9B2tENhS-1" edge="1">
          <mxGeometry relative="1" as="geometry">
            <Array as="points">
              <mxPoint x="670" y="220" />
              <mxPoint x="670" y="170" />
              <mxPoint x="860" y="170" />
            </Array>
          </mxGeometry>
        </mxCell>
        <mxCell id="2rZ2pw6oNvYek1_uLGKU-1" style="edgeStyle=orthogonalEdgeStyle;rounded=0;orthogonalLoop=1;jettySize=auto;html=1;exitX=0.25;exitY=0;exitDx=0;exitDy=0;" edge="1" parent="1" source="j4qfja45PSdk9B2tENhS-2">
          <mxGeometry relative="1" as="geometry">
            <mxPoint x="610" y="80" as="targetPoint" />
          </mxGeometry>
        </mxCell>
        <mxCell id="j4qfja45PSdk9B2tENhS-2" value="Hubris" style="rounded=0;whiteSpace=wrap;html=1;" parent="1" vertex="1">
          <mxGeometry x="580" y="220" width="120" height="60" as="geometry" />
        </mxCell>
        <mxCell id="j4qfja45PSdk9B2tENhS-15" style="edgeStyle=orthogonalEdgeStyle;rounded=0;orthogonalLoop=1;jettySize=auto;html=1;" parent="1" source="j4qfja45PSdk9B2tENhS-3" target="j4qfja45PSdk9B2tENhS-8" edge="1">
          <mxGeometry relative="1" as="geometry" />
        </mxCell>
        <mxCell id="j4qfja45PSdk9B2tENhS-18" style="edgeStyle=orthogonalEdgeStyle;rounded=0;orthogonalLoop=1;jettySize=auto;html=1;exitX=1;exitY=0.5;exitDx=0;exitDy=0;entryX=0;entryY=0.5;entryDx=0;entryDy=0;" parent="1" source="j4qfja45PSdk9B2tENhS-3" target="j4qfja45PSdk9B2tENhS-4" edge="1">
          <mxGeometry relative="1" as="geometry" />
        </mxCell>
        <mxCell id="j4qfja45PSdk9B2tENhS-34" style="edgeStyle=orthogonalEdgeStyle;rounded=0;orthogonalLoop=1;jettySize=auto;html=1;" parent="1" source="j4qfja45PSdk9B2tENhS-3" target="j4qfja45PSdk9B2tENhS-7" edge="1">
          <mxGeometry relative="1" as="geometry" />
        </mxCell>
        <mxCell id="j4qfja45PSdk9B2tENhS-3" value="AXI&lt;div&gt;Interconnect&lt;/div&gt;" style="rounded=0;whiteSpace=wrap;html=1;" parent="1" vertex="1">
          <mxGeometry x="380" y="260" width="120" height="200" as="geometry" />
        </mxCell>
        <mxCell id="j4qfja45PSdk9B2tENhS-12" style="edgeStyle=orthogonalEdgeStyle;rounded=0;orthogonalLoop=1;jettySize=auto;html=1;entryX=1;entryY=0.5;entryDx=0;entryDy=0;" parent="1" source="j4qfja45PSdk9B2tENhS-4" target="j4qfja45PSdk9B2tENhS-9" edge="1">
          <mxGeometry relative="1" as="geometry">
            <Array as="points">
              <mxPoint x="755" y="430" />
            </Array>
          </mxGeometry>
        </mxCell>
        <mxCell id="j4qfja45PSdk9B2tENhS-21" style="edgeStyle=orthogonalEdgeStyle;rounded=0;orthogonalLoop=1;jettySize=auto;html=1;" parent="1" source="j4qfja45PSdk9B2tENhS-4" target="j4qfja45PSdk9B2tENhS-3" edge="1">
          <mxGeometry relative="1" as="geometry" />
        </mxCell>
        <mxCell id="j4qfja45PSdk9B2tENhS-26" style="edgeStyle=orthogonalEdgeStyle;rounded=0;orthogonalLoop=1;jettySize=auto;html=1;" parent="1" source="j4qfja45PSdk9B2tENhS-4" target="j4qfja45PSdk9B2tENhS-2" edge="1">
          <mxGeometry relative="1" as="geometry">
            <Array as="points">
              <mxPoint x="920" y="460" />
              <mxPoint x="920" y="150" />
              <mxPoint x="640" y="150" />
            </Array>
          </mxGeometry>
        </mxCell>
        <mxCell id="j4qfja45PSdk9B2tENhS-4" value="Control&lt;div&gt;Signal&lt;/div&gt;" style="rounded=0;whiteSpace=wrap;html=1;" parent="1" vertex="1">
          <mxGeometry x="580" y="414" width="120" height="60" as="geometry" />
        </mxCell>
        <mxCell id="j4qfja45PSdk9B2tENhS-33" style="edgeStyle=orthogonalEdgeStyle;rounded=0;orthogonalLoop=1;jettySize=auto;html=1;" parent="1" source="j4qfja45PSdk9B2tENhS-7" target="j4qfja45PSdk9B2tENhS-3" edge="1">
          <mxGeometry relative="1" as="geometry" />
        </mxCell>
        <mxCell id="j4qfja45PSdk9B2tENhS-7" value="&lt;font style=&quot;font-size: 24px;&quot;&gt;&lt;b&gt;PS&lt;/b&gt;&lt;/font&gt;" style="rounded=0;whiteSpace=wrap;html=1;" parent="1" vertex="1">
          <mxGeometry x="190" y="330" width="120" height="60" as="geometry" />
        </mxCell>
        <mxCell id="j4qfja45PSdk9B2tENhS-10" style="edgeStyle=orthogonalEdgeStyle;rounded=0;orthogonalLoop=1;jettySize=auto;html=1;exitX=1;exitY=0.5;exitDx=0;exitDy=0;" parent="1" source="j4qfja45PSdk9B2tENhS-8" target="j4qfja45PSdk9B2tENhS-9" edge="1">
          <mxGeometry relative="1" as="geometry" />
        </mxCell>
        <mxCell id="j4qfja45PSdk9B2tENhS-16" style="edgeStyle=orthogonalEdgeStyle;rounded=0;orthogonalLoop=1;jettySize=auto;html=1;" parent="1" source="j4qfja45PSdk9B2tENhS-8" target="j4qfja45PSdk9B2tENhS-3" edge="1">
          <mxGeometry relative="1" as="geometry" />
        </mxCell>
        <mxCell id="j4qfja45PSdk9B2tENhS-8" value="BRAM&lt;div&gt;Controller&lt;/div&gt;" style="rounded=0;whiteSpace=wrap;html=1;" parent="1" vertex="1">
          <mxGeometry x="580" y="310" width="120" height="60" as="geometry" />
        </mxCell>
        <mxCell id="j4qfja45PSdk9B2tENhS-22" style="edgeStyle=orthogonalEdgeStyle;rounded=0;orthogonalLoop=1;jettySize=auto;html=1;exitX=0.5;exitY=0;exitDx=0;exitDy=0;" parent="1" source="j4qfja45PSdk9B2tENhS-9" target="j4qfja45PSdk9B2tENhS-1" edge="1">
          <mxGeometry relative="1" as="geometry" />
        </mxCell>
        <mxCell id="j4qfja45PSdk9B2tENhS-24" style="edgeStyle=orthogonalEdgeStyle;rounded=0;orthogonalLoop=1;jettySize=auto;html=1;" parent="1" source="j4qfja45PSdk9B2tENhS-9" target="j4qfja45PSdk9B2tENhS-8" edge="1">
          <mxGeometry relative="1" as="geometry" />
        </mxCell>
        <mxCell id="j4qfja45PSdk9B2tENhS-25" style="edgeStyle=orthogonalEdgeStyle;rounded=0;orthogonalLoop=1;jettySize=auto;html=1;entryX=1;entryY=0.5;entryDx=0;entryDy=0;" parent="1" source="j4qfja45PSdk9B2tENhS-9" target="j4qfja45PSdk9B2tENhS-2" edge="1">
          <mxGeometry relative="1" as="geometry" />
        </mxCell>
        <mxCell id="j4qfja45PSdk9B2tENhS-9" value="" style="shape=trapezoid;perimeter=trapezoidPerimeter;whiteSpace=wrap;html=1;fixedSize=1;direction=south;" parent="1" vertex="1">
          <mxGeometry x="740" y="250" width="30" height="100" as="geometry" />
        </mxCell>
        <mxCell id="j4qfja45PSdk9B2tENhS-30" value="" style="endArrow=none;dashed=1;html=1;dashPattern=1 3;strokeWidth=2;rounded=0;exitX=0.242;exitY=1.006;exitDx=0;exitDy=0;exitPerimeter=0;" parent="1" edge="1" source="j4qfja45PSdk9B2tENhS-32">
          <mxGeometry width="50" height="50" relative="1" as="geometry">
            <mxPoint x="350" y="560" as="sourcePoint" />
            <mxPoint x="350" y="110" as="targetPoint" />
          </mxGeometry>
        </mxCell>
        <mxCell id="j4qfja45PSdk9B2tENhS-35" value="&lt;font style=&quot;font-size: 24px;&quot;&gt;&lt;b&gt;PL&lt;/b&gt;&lt;/font&gt;" style="text;html=1;align=center;verticalAlign=middle;resizable=0;points=[];autosize=1;strokeColor=none;fillColor=none;" parent="1" vertex="1">
          <mxGeometry x="380" y="130" width="50" height="40" as="geometry" />
        </mxCell>
        <mxCell id="2rZ2pw6oNvYek1_uLGKU-2" style="edgeStyle=orthogonalEdgeStyle;rounded=0;orthogonalLoop=1;jettySize=auto;html=1;exitX=0.25;exitY=0;exitDx=0;exitDy=0;" edge="1" parent="1">
          <mxGeometry relative="1" as="geometry">
            <mxPoint x="610" y="220" as="targetPoint" />
            <mxPoint x="610" y="80" as="sourcePoint" />
          </mxGeometry>
        </mxCell>
        <mxCell id="2rZ2pw6oNvYek1_uLGKU-3" value="UART" style="text;html=1;align=center;verticalAlign=middle;resizable=0;points=[];autosize=1;strokeColor=none;fillColor=none;" vertex="1" parent="1">
          <mxGeometry x="600" y="80" width="60" height="30" as="geometry" />
        </mxCell>
      </root>
    </mxGraphModel>
  </diagram>
</mxfile>
